<svg xmlns="http://www.w3.org/2000/svg" viewBox="0 0 512 512"><circle cx="256" cy="256" r="256" fill="#55a8eb"/><path d="M34.770-37.050L34.770-37.050Q32.490-70.680 29.640-107.445Q26.790-144.210 24.225-177.840Q21.660-211.470 19.950-235.125Q18.240-258.780 17.100-265.620L17.100-265.620Q15.390-278.730 18.525-283.575Q21.660-288.420 21.660-288.420L21.660-288.420Q21.660-288.420 17.670-292.695Q13.680-296.970 13.680-302.100L13.680-302.100Q13.680-311.220 24.795-316.920Q35.910-322.620 50.160-325.470Q64.410-328.320 75.525-329.460Q86.640-330.600 86.640-330.600L86.640-330.600Q86.640-330.600 98.040-331.170Q109.440-331.740 127.395-330.030Q145.350-328.320 166.155-321.195Q186.960-314.070 206.055-298.680Q225.150-283.290 238.260-256.785Q251.370-230.280 254.220-189.240L254.220-189.240Q257.640-140.790 249.945-107.730Q242.250-74.670 227.145-53.865Q212.040-33.060 192.660-21.660Q173.280-10.260 152.475-5.985Q131.670-1.710 113.145-0.855Q94.620 0 80.940 0L80.940 0Q60.990 0 51.015-5.700Q41.040-11.400 37.905-18.525Q34.770-25.650 34.770-31.350Q34.770-37.050 34.770-37.050ZM95.760-279.300L95.760-279.300L120.840-48.450Q120.840-48.450 125.970-49.020Q131.100-49.590 138.795-54.150Q146.490-58.710 153.615-70.680Q160.740-82.650 164.730-104.595Q168.720-126.540 166.440-161.880L166.440-161.880Q164.160-206.340 157.035-231.135Q149.910-255.930 139.935-266.760Q129.960-277.590 118.560-279.300Q107.160-281.010 95.760-279.300Z" fill="#fefdd8" transform="translate(121.52384185791016, 421.65625)"/></svg>